<svg xmlns="http://www.w3.org/2000/svg" xmlns:xlink="http://www.w3.org/1999/xlink" xmlns:lucid="lucid" width="3671.6" height="1668.4"><g transform="translate(-25.199999999999932 -11.599999999976717)" lucid:page-tab-id="0_0"><path d="M0 0h3676.8v2582.4H0z" fill="#fff"/><path d="M45.2 31.6H1820v1260H45.2z" stroke="#333" stroke-width="2" fill="#fff"/><path d="M1630.4 1227.73h240v63.87h-240z" stroke="#000" stroke-opacity="0" stroke-width="2" fill="#fff" fill-opacity="0"/><use xlink:href="#a" transform="matrix(1,0,0,1,1635.3999999999999,1232.7333333333102) translate(68.89537037037039 31.455555555555552)"/><use xlink:href="#b" transform="matrix(1,0,0,1,1635.3999999999999,1232.7333333333102) translate(146.14166666666665 31.455555555555552)"/><path d="M1860 31.6h1774.8v1260H1860z" stroke="#333" stroke-width="2" fill="#fff"/><path d="M3436.8 1229.67h240v63.86h-240z" stroke="#000" stroke-opacity="0" stroke-width="2" fill="#fff" fill-opacity="0"/><use xlink:href="#a" transform="matrix(1,0,0,1,3441.7999999999997,1234.6666666666433) translate(68.89537037037039 31.455555555555552)"/><use xlink:href="#c" transform="matrix(1,0,0,1,3441.7999999999997,1234.6666666666433) translate(146.14166666666665 31.455555555555552)"/><g class="lucid-layer" lucid:layer-id="ONbz36da6azp" display="block"><path d="M100 80h1560v364.62H100z" stroke="#ff8f80" stroke-width="2" fill="#fff"/><path d="M1480 382.4h240v64.02h-240z" stroke="#000" stroke-opacity="0" stroke-width="2" fill="#fff" fill-opacity="0"/><use xlink:href="#d" transform="matrix(1,0,0,1,1485,387.3992673992674) translate(67.67962962962963 31.705555555555552)"/><use xlink:href="#e" transform="matrix(1,0,0,1,1485,387.3992673992674) translate(147.35740740740738 31.705555555555552)"/><path d="M100 485.5h1560v789.63H100z" stroke="#ff8f80" stroke-width="2" fill="#fff"/><path d="M1480 1214.36h240v64.02h-240z" stroke="#000" stroke-opacity="0" stroke-width="2" fill="#fff" fill-opacity="0"/><use xlink:href="#d" transform="matrix(1,0,0,1,1485,1219.3589743589744) translate(67.67962962962963 31.705555555555552)"/><use xlink:href="#f" transform="matrix(1,0,0,1,1485,1219.3589743589744) translate(147.35740740740738 31.705555555555552)"/><path d="M740 890.26h600v364.6H740z" stroke="#c7e8ac" stroke-width="2" fill="#fff"/><path d="M1100 890.26h240v60.77h-240z" stroke="#000" stroke-opacity="0" stroke-width="2" fill="#fff" fill-opacity="0"/><use xlink:href="#g" transform="matrix(1,0,0,1,1105,895.2564102564103) translate(27.871913580246925 30.705555555555552)"/><use xlink:href="#h" transform="matrix(1,0,0,1,1105,895.2564102564103) translate(146.0793209876543 30.705555555555552)"/><path d="M120 120.5h220V870H120z" stroke="#99d2f2" stroke-width="2" fill="#fff"/><path d="M160 120.5h240v60.78H160z" stroke="#000" stroke-opacity="0" stroke-width="2" fill="#fff" fill-opacity="0"/><use xlink:href="#i" transform="matrix(1,0,0,1,165,125.51282051282054) translate(81.05 30.3375)"/><use xlink:href="#j" transform="matrix(1,0,0,1,165,125.51282051282054) translate(104 30.3375)"/><path d="M510 120.5h220V870H510zM910 121.96h220v749.5H910zM1310 120.5h220v748.05h-220z" stroke="#99d2f2" stroke-width="2" fill="#fff"/><path d="M540 120.5h240v60.78H540z" stroke="#000" stroke-opacity="0" stroke-width="2" fill="#fff" fill-opacity="0"/><use xlink:href="#i" transform="matrix(1,0,0,1,545,125.51282051282054) translate(57.55 30.3375)"/><use xlink:href="#k" transform="matrix(1,0,0,1,545,125.51282051282054) translate(80.5 30.3375)"/><use xlink:href="#j" transform="matrix(1,0,0,1,545,125.51282051282054) translate(127.5 30.3375)"/><path d="M940 121.96h240v60.77H940z" stroke="#000" stroke-opacity="0" stroke-width="2" fill="#fff" fill-opacity="0"/><use xlink:href="#l" transform="matrix(1,0,0,1,945,126.95970695970699) translate(53.55 30.3375)"/><use xlink:href="#j" transform="matrix(1,0,0,1,945,126.95970695970699) translate(131.5 30.3375)"/><path d="M1340 121.96h240v60.77h-240z" stroke="#000" stroke-opacity="0" stroke-width="2" fill="#fff" fill-opacity="0"/><use xlink:href="#m" transform="matrix(1,0,0,1,1345,126.95970695970699) translate(71.05 30.3375)"/><use xlink:href="#j" transform="matrix(1,0,0,1,1345,126.95970695970699) translate(114 30.3375)"/><path d="M110 884.68h240v370.2H110z" stroke="#000" stroke-opacity="0" stroke-width="2" fill="#fff" fill-opacity="0"/><use xlink:href="#n" transform="matrix(1,0,0,1,115,889.6810744810746) translate(0 21.511111111111106)"/><use xlink:href="#o" transform="matrix(1,0,0,1,115,889.6810744810746) translate(0 53.777777777777764)"/><use xlink:href="#p" transform="matrix(1,0,0,1,115,889.6810744810746) translate(7.294444444444442 82.48888888888887)"/><use xlink:href="#q" transform="matrix(1,0,0,1,115,889.6810744810746) translate(22.444444444444436 82.48888888888887)"/><use xlink:href="#r" transform="matrix(1,0,0,1,115,889.6810744810746) translate(102.12222222222218 82.48888888888887)"/><use xlink:href="#s" transform="matrix(1,0,0,1,115,889.6810744810746) translate(122.07283950617278 82.48888888888887)"/><use xlink:href="#t" transform="matrix(1,0,0,1,115,889.6810744810746) translate(144.45493827160487 82.48888888888887)"/><use xlink:href="#u" transform="matrix(1,0,0,1,115,889.6810744810746) translate(22.444444444444436 109.42222222222219)"/><use xlink:href="#v" transform="matrix(1,0,0,1,115,889.6810744810746) translate(77.18395061728393 109.42222222222219)"/><use xlink:href="#w" transform="matrix(1,0,0,1,115,889.6810744810746) translate(156.86172839506168 109.42222222222219)"/><use xlink:href="#t" transform="matrix(1,0,0,1,115,889.6810744810746) translate(181.79999999999993 109.42222222222219)"/><use xlink:href="#x" transform="matrix(1,0,0,1,115,889.6810744810746) translate(22.444444444444436 136.3555555555555)"/><use xlink:href="#y" transform="matrix(1,0,0,1,115,889.6810744810746) translate(0 163.28888888888883)"/><use xlink:href="#p" transform="matrix(1,0,0,1,115,889.6810744810746) translate(7.294444444444442 190.22222222222214)"/><use xlink:href="#q" transform="matrix(1,0,0,1,115,889.6810744810746) translate(22.444444444444436 190.22222222222214)"/><use xlink:href="#z" transform="matrix(1,0,0,1,115,889.6810744810746) translate(102.12222222222218 190.22222222222214)"/><use xlink:href="#A" transform="matrix(1,0,0,1,115,889.6810744810746) translate(138.78148148148142 190.22222222222214)"/><use xlink:href="#B" transform="matrix(1,0,0,1,115,889.6810744810746) translate(189.78024691358016 190.22222222222214)"/><use xlink:href="#C" transform="matrix(1,0,0,1,115,889.6810744810746) translate(22.444444444444436 217.15555555555548)"/><use xlink:href="#s" transform="matrix(1,0,0,1,115,889.6810744810746) translate(59.851851851851826 217.15555555555548)"/><use xlink:href="#C" transform="matrix(1,0,0,1,115,889.6810744810746) translate(82.23395061728391 217.15555555555548)"/><use xlink:href="#D" transform="matrix(1,0,0,1,115,889.6810744810746) translate(119.6413580246913 217.15555555555548)"/><use xlink:href="#A" transform="matrix(1,0,0,1,115,889.6810744810746) translate(22.444444444444436 244.08888888888882)"/><use xlink:href="#E" transform="matrix(1,0,0,1,115,889.6810744810746) translate(73.44320987654318 244.08888888888882)"/><use xlink:href="#C" transform="matrix(1,0,0,1,115,889.6810744810746) translate(97.07222222222218 244.08888888888882)"/><use xlink:href="#F" transform="matrix(1,0,0,1,115,889.6810744810746) translate(134.47962962962958 244.08888888888882)"/><use xlink:href="#w" transform="matrix(1,0,0,1,115,889.6810744810746) translate(22.444444444444436 271.0222222222221)"/><use xlink:href="#G" transform="matrix(1,0,0,1,115,889.6810744810746) translate(47.382716049382694 271.0222222222221)"/><use xlink:href="#H" transform="matrix(1,0,0,1,115,889.6810744810746) translate(88.46851851851847 271.0222222222221)"/><use xlink:href="#I" transform="matrix(1,0,0,1,115,889.6810744810746) translate(168.20864197530858 271.0222222222221)"/><use xlink:href="#J" transform="matrix(1,0,0,1,115,889.6810744810746) translate(22.444444444444436 297.9555555555555)"/><use xlink:href="#A" transform="matrix(1,0,0,1,115,889.6810744810746) translate(79.74012345679009 297.9555555555555)"/><use xlink:href="#K" transform="matrix(1,0,0,1,115,889.6810744810746) translate(130.73888888888882 297.9555555555555)"/><use xlink:href="#L" transform="matrix(1,0,0,1,115,889.6810744810746) translate(191.77530864197522 297.9555555555555)"/><use xlink:href="#v" transform="matrix(1,0,0,1,115,889.6810744810746) translate(22.444444444444436 324.8888888888888)"/><use xlink:href="#M" transform="matrix(1,0,0,1,115,889.6810744810746) translate(102.12222222222218 324.8888888888888)"/><use xlink:href="#s" transform="matrix(1,0,0,1,115,889.6810744810746) translate(146.20061728395055 324.8888888888888)"/><use xlink:href="#N" transform="matrix(1,0,0,1,115,889.6810744810746) translate(168.58271604938264 324.8888888888888)"/><use xlink:href="#O" transform="matrix(1,0,0,1,115,889.6810744810746) translate(22.444444444444436 351.8222222222222)"/><use xlink:href="#w" transform="matrix(1,0,0,1,115,889.6810744810746) translate(109.60370370370364 351.8222222222222)"/><use xlink:href="#P" transform="matrix(1,0,0,1,115,889.6810744810746) translate(134.5419753086419 351.8222222222222)"/><path d="M340 1052.3h240v146.53H340z" stroke="#000" stroke-opacity="0" stroke-width="2" fill="#fff" fill-opacity="0"/><g><use xlink:href="#Q" transform="matrix(1,0,0,1,345,1057.3076923076922) translate(7.2944444444444425 22.236805555555552)"/><use xlink:href="#R" transform="matrix(1,0,0,1,345,1057.3076923076922) translate(22.44444444444444 22.236805555555552)"/><use xlink:href="#S" transform="matrix(1,0,0,1,345,1057.3076923076922) translate(67.27098765432098 22.236805555555552)"/><use xlink:href="#T" transform="matrix(1,0,0,1,345,1057.3076923076922) translate(140.71419753086417 22.236805555555552)"/><use xlink:href="#U" transform="matrix(1,0,0,1,345,1057.3076923076922) translate(22.44444444444444 49.170138888888886)"/><use xlink:href="#V" transform="matrix(1,0,0,1,345,1057.3076923076922) translate(131.9858024691358 49.170138888888886)"/><use xlink:href="#W" transform="matrix(1,0,0,1,345,1057.3076923076922) translate(22.44444444444444 76.10347222222221)"/><use xlink:href="#X" transform="matrix(1,0,0,1,345,1057.3076923076922) translate(108.35679012345679 76.10347222222221)"/><use xlink:href="#Y" transform="matrix(1,0,0,1,345,1057.3076923076922) translate(22.44444444444444 103.03680555555553)"/><use xlink:href="#Z" transform="matrix(1,0,0,1,345,1057.3076923076922) translate(66.0864197530864 103.03680555555553)"/><use xlink:href="#aa" transform="matrix(1,0,0,1,345,1057.3076923076922) translate(22.44444444444444 129.97013888888887)"/><use xlink:href="#ab" transform="matrix(1,0,0,1,345,1057.3076923076922) translate(113.40679012345677 129.97013888888887)"/></g><path d="M1920 485.13h1560v789.64H1920z" stroke="#ff8f80" stroke-width="2" fill="#fff"/><path d="M3300 1211.1h240v64.03h-240z" stroke="#000" stroke-opacity="0" stroke-width="2" fill="#fff" fill-opacity="0"/><g><use xlink:href="#ac" transform="matrix(1,0,0,1,3305,1216.1034798534797) translate(67.08734567901236 31.705555555555552)"/><use xlink:href="#ad" transform="matrix(1,0,0,1,3305,1216.1034798534797) translate(146.76512345679012 31.705555555555552)"/></g><path d="M2560 890.26h600v364.6h-600z" stroke="#c7e8ac" stroke-width="2" fill="#fff"/><path d="M2920 890.26h240v60.77h-240z" stroke="#000" stroke-opacity="0" stroke-width="2" fill="#fff" fill-opacity="0"/><g><use xlink:href="#ae" transform="matrix(1,0,0,1,2925,895.2564102564103) translate(27.871913580246925 30.705555555555552)"/><use xlink:href="#af" transform="matrix(1,0,0,1,2925,895.2564102564103) translate(146.0793209876543 30.705555555555552)"/></g><path d="M100 1356.15h3380V1660H100z" stroke="#ffeca9" stroke-width="2" fill="#fff"/><path d="M3240 1599.23h240V1660h-240z" stroke="#000" stroke-opacity="0" stroke-width="2" fill="#fff" fill-opacity="0"/><g><use xlink:href="#ag" transform="matrix(1,0,0,1,3245,1604.230769230769) translate(25.31574074074075 30.705555555555552)"/><use xlink:href="#af" transform="matrix(1,0,0,1,3245,1604.230769230769) translate(148.63549382716047 30.705555555555552)"/></g></g><g class="lucid-layer" lucid:layer-id="aEbzXnZK8UpJ" display="block"><path d="M140 720h160v120H140z" stroke="#000" stroke-width="2" fill="#fff"/><use xlink:href="#ah" transform="matrix(1,0,0,1,152,732) translate(48.724999999999994 50.4)"/><path d="M540 720h160v120H540z" stroke="#000" stroke-width="2" fill="#fff"/><use xlink:href="#ai" transform="matrix(1,0,0,1,552,732) translate(29.049999999999997 50.4)"/><path d="M1340 720h160v120h-160z" stroke="#000" stroke-width="2" fill="#fff"/><use xlink:href="#aj" transform="matrix(1,0,0,1,1352,732) translate(43.55 50.4)"/><path d="M940 920h160v120H940z" stroke="#000" stroke-width="2" fill="#fff"/><use xlink:href="#ak" transform="matrix(1,0,0,1,952,932) translate(34.574999999999996 50.4)"/><path d="M940 1100h160v120H940z" stroke="#000" stroke-width="2" fill="#fff"/><use xlink:href="#al" transform="matrix(1,0,0,1,952,1112) translate(25.074999999999996 50.4)"/><path d="M760 920h160v120H760z" stroke="#000" stroke-width="2" fill="#fff"/><use xlink:href="#am" transform="matrix(1,0,0,1,772,932) translate(34.525 50.4)"/><path d="M140 220h160v120H140z" stroke="#000" stroke-width="2" fill="#fff"/><use xlink:href="#ah" transform="matrix(1,0,0,1,152,232) translate(48.724999999999994 50.4)"/><path d="M540 220h160v120H540z" stroke="#000" stroke-width="2" fill="#fff"/><use xlink:href="#ai" transform="matrix(1,0,0,1,552,232) translate(29.049999999999997 50.4)"/><path d="M1340 220h160v120h-160z" stroke="#000" stroke-width="2" fill="#fff"/><use xlink:href="#aj" transform="matrix(1,0,0,1,1352,232) translate(43.55 50.4)"/><path d="M940 220h160v120H940z" stroke="#000" stroke-width="2" fill="#fff"/><use xlink:href="#an" transform="matrix(1,0,0,1,952,232) translate(30.049999999999997 50.4)"/><path d="M940 720h160v120H940z" stroke="#000" stroke-width="2" fill="#fff"/><use xlink:href="#an" transform="matrix(1,0,0,1,952,732) translate(30.049999999999997 50.4)"/><path d="M1020 1042v38.5" stroke="#000" stroke-width="2" fill="none"/><path d="M1021 1042.03h-2V1041h2"/><path d="M1020 1095.76l-4.64-14.26h9.28z" stroke="#000" stroke-width="2"/><path d="M302 280h218.5" stroke="#000" stroke-width="2" fill="none"/><path d="M302.03 281H301v-2h1.03"/><path d="M535.76 280l-14.26 4.64v-9.28z" stroke="#000" stroke-width="2"/><path d="M702 280h218.5" stroke="#000" stroke-width="2" fill="none"/><path d="M702.03 281H701v-2h1.03"/><path d="M935.76 280l-14.26 4.64v-9.28z" stroke="#000" stroke-width="2"/><path d="M1102 280h218.5" stroke="#000" stroke-width="2" fill="none"/><path d="M1102.03 281H1101v-2h1.03"/><path d="M1335.76 280l-14.26 4.64v-9.28z" stroke="#000" stroke-width="2"/><path d="M302 780h218.5" stroke="#000" stroke-width="2" fill="none"/><path d="M302.03 781H301v-2h1.03"/><path d="M535.76 780l-14.26 4.64v-9.28z" stroke="#000" stroke-width="2"/><path d="M702 780h218.5" stroke="#000" stroke-width="2" fill="none"/><path d="M702.03 781H701v-2h1.03"/><path d="M935.76 780l-14.26 4.64v-9.28z" stroke="#000" stroke-width="2"/><path d="M1102 780h218.5" stroke="#000" stroke-width="2" fill="none"/><path d="M1102.03 781H1101v-2h1.03"/><path d="M1335.76 780l-14.26 4.64v-9.28z" stroke="#000" stroke-width="2"/><path d="M1020 842v58.5" stroke="#000" stroke-width="2" fill="none"/><path d="M1021 842.03h-2V841h2"/><path d="M1020 915.76l-4.64-14.26h9.28z" stroke="#000" stroke-width="2"/><path d="M540 920h160v120H540z" stroke="#000" stroke-width="2" fill="#fff"/><use xlink:href="#ao" transform="matrix(1,0,0,1,552,932) translate(41.05 50.4)"/><path d="M620 842v58.5" stroke="#000" stroke-width="2" fill="none"/><path d="M621 842.03h-2V841h2"/><path d="M620 915.76l-4.64-14.26h9.28z" stroke="#000" stroke-width="2"/><path d="M1102 980h9.74m9.75 0h19.48m9.74 0h19.5m9.74 0h19.48m9.75 0h19.48m9.74 0h19.5m9.73 0h19.5m9.74 0h19.48m9.74 0h19.5m9.73 0h19.5m9.74 0h19.48m9.74 0h6.18v-13.3m0-9.75v-19.5m0-9.74v-19.48m0-9.74v-19.5m0-9.73v-9.75" stroke="#999" stroke-width="2" fill="none"/><path d="M1102.03 981H1101v-2h1.03" fill="#999"/><path d="M1420 844.24l4.64 14.26h-9.28z" stroke="#999" stroke-width="2" fill="#999"/><use xlink:href="#ap" transform="matrix(1,0,0,1,1273.7125,954.4) translate(0 14.4)"/><path d="M1420 342v9.96m0 9.96v19.9m0 9.97v19.9m0 9.97v19.9m0 9.97v19.92m0 9.96v19.9m0 9.97v19.9m0 9.97v19.9m0 9.97v19.92m0 9.96v19.9m0 9.97v19.9m0 9.96v19.92m0 9.96v9.96" stroke="#999" stroke-width="2" fill="none"/><path d="M1421 342.03h-2V341h2" fill="#999"/><path d="M1420 715.76l-4.64-14.26h9.28z" stroke="#999" stroke-width="2" fill="#999"/><use xlink:href="#ap" transform="matrix(1,0,0,1,1352.15,519.2) translate(0 14.4)"/><path d="M1374.55 718v-9.8m0-9.8V679h-.2m-9.8 0h-19.62m-9.8 0h-19.6m-9.8 0h-19.6m-9.8 0h-19.62m-9.8 0h-19.6m-9.8 0h-19.6m-9.8 0h-19.6m-9.8 0h-19.6m-9.82 0h-19.6m-9.8 0h-19.6m-9.8 0h-17.72v1.9m0 9.8v9.8" stroke="#999" stroke-width="2" fill="none"/><path d="M1375.55 719h-2v-1.03h2" fill="#999"/><path d="M1052.76 715.76l-4.64-14.26h9.27z" stroke="#999" stroke-width="2" fill="#999"/><use xlink:href="#ap" transform="matrix(1,0,0,1,1183.7295317717935,653.4000000000001) translate(0 14.4)"/><path d="M1020 718v-9.93m0-9.93V679h-.72m-9.92 0H989.5m-9.93 0H959.7m-9.92 0h-19.86m-9.92 0h-19.86m-9.93 0h-19.85m-9.93 0h-19.86m-9.92 0h-19.86m-9.93 0H781m-9.94 0H751.2m-9.92 0h-19.86m-9.93 0h-19.87m-9.93 0h-18.22v1.64m0 9.93v9.93" stroke="#999" stroke-width="2" fill="none"/><path d="M1021 719h-2v-1.03h2" fill="#999"/><path d="M663.48 715.76l-4.63-14.26h9.27z" stroke="#999" stroke-width="2" fill="#999"/><use xlink:href="#ap" transform="matrix(1,0,0,1,811.8174187451881,653.4000000000001) translate(0 14.4)"/><path d="M579.6 718v-10m0-9.98V679h-.96m-10 0h-19.98m-10 0H518.7m-10 0h-20m-9.98 0h-19.98m-10 0h-19.98m-10 0H398.8m-10 0h-20m-9.98 0h-20m-9.98 0h-19.98m-10 0H278.9m-10 0h-19.97m-10 0h-18.46v1.5m0 10v10" stroke="#999" stroke-width="2" fill="none"/><path d="M580.6 719h-2v-1.03h2" fill="#999"/><path d="M220.44 715.76l-4.63-14.26h9.28z" stroke="#999" stroke-width="2" fill="#999"/><use xlink:href="#ap" transform="matrix(1,0,0,1,370.1015146619447,653.4000000000001) translate(0 14.4)"/><path d="M1420 218v-10.08m0-10.08V179h-1.33m-10.08 0h-20.17m-10.1 0h-20.15m-10.08 0h-20.16m-10.1 0h-20.15m-10.1 0h-20.16m-10.08 0h-20.16m-10.08 0h-20.17m-10.08 0h-20.16m-10.07 0h-20.17m-10.08 0h-20.16m-10.1 0h-20.15m-10.08 0h-18.84v1.33m0 10.1v10.07" stroke="#999" stroke-width="2" fill="none"/><path d="M1421 219h-2v-1.03h2" fill="#999"/><path d="M1057.06 215.76l-4.64-14.26h9.27z" stroke="#999" stroke-width="2" fill="#999"/><use xlink:href="#ap" transform="matrix(1,0,0,1,1208.6046557966288,153.4) translate(0 14.4)"/><path d="M984.93 218v-9.8m0-9.8V179h-.18m-9.8 0h-19.58m-9.8 0H926m-9.8 0h-19.6m-9.78 0h-19.6m-9.78 0h-19.6m-9.78 0h-19.6m-9.78 0h-19.6m-9.78 0h-19.6m-9.78 0h-19.6m-9.78 0h-19.6m-9.78 0h-17.68v1.9m0 9.8v9.8" stroke="#999" stroke-width="2" fill="none"/><path d="M985.93 219h-2v-1.03h2" fill="#999"/><path d="M663.48 215.76l-4.63-14.26h9.27z" stroke="#999" stroke-width="2" fill="#999"/><use xlink:href="#ap" transform="matrix(1,0,0,1,794.2813411133429,153.4) translate(0 14.4)"/><path d="M620 218v-10.23m0-10.24V179h-1.93m-10.24 0h-20.46m-10.24 0h-20.46m-10.24 0h-20.46m-10.24 0h-20.46m-10.24 0h-20.46m-10.24 0h-20.46m-10.24 0h-20.46m-10.24 0h-20.46m-10.24 0h-20.46m-10.24 0h-20.46m-10.24 0h-20.46m-10.24 0h-20.46m-10.23 0H220v1.03m0 10.23v10.24" stroke="#999" stroke-width="2" fill="none"/><path d="M621 219h-2v-1.03h2" fill="#999"/><path d="M220 215.76l-4.64-14.26h9.28z" stroke="#999" stroke-width="2" fill="#999"/><use xlink:href="#ap" transform="matrix(1,0,0,1,390.075,153.4) translate(0 14.4)"/><path d="M1457.32 718V359.5" stroke="#000" stroke-width="2" fill="none"/><path d="M1458.32 719h-2v-1.03h2"/><path d="M1457.32 344.24l4.63 14.26h-9.27z" stroke="#000" stroke-width="2"/><path d="M1960 718.57h160v120h-160z" stroke="#000" stroke-width="2" fill="#fff"/><use xlink:href="#aq" transform="matrix(1,0,0,1,1972,730.5714285714785) translate(48.724999999999994 50.4)"/><path d="M2360 718.57h160v120h-160z" stroke="#000" stroke-width="2" fill="#fff"/><use xlink:href="#ar" transform="matrix(1,0,0,1,2372,730.5714285714785) translate(29.049999999999997 50.4)"/><path d="M3160 718.57h160v120h-160z" stroke="#000" stroke-width="2" fill="#fff"/><use xlink:href="#as" transform="matrix(1,0,0,1,3172,730.5714285714785) translate(43.55 50.4)"/><path d="M2760 918.57h160v120h-160z" stroke="#000" stroke-width="2" fill="#fff"/><use xlink:href="#ak" transform="matrix(1,0,0,1,2772,930.5714285714785) translate(34.574999999999996 50.4)"/><path d="M2760 1098.57h160v120h-160z" stroke="#000" stroke-width="2" fill="#fff"/><use xlink:href="#al" transform="matrix(1,0,0,1,2772,1110.5714285714785) translate(25.074999999999996 50.4)"/><path d="M2580 918.57h160v120h-160z" stroke="#000" stroke-width="2" fill="#fff"/><use xlink:href="#at" transform="matrix(1,0,0,1,2592,930.5714285714785) translate(34.525 50.4)"/><path d="M2760 718.57h160v120h-160z" stroke="#000" stroke-width="2" fill="#fff"/><use xlink:href="#au" transform="matrix(1,0,0,1,2772,730.5714285714785) translate(30.049999999999997 50.4)"/><path d="M2840 1040.57v38.5" stroke="#000" stroke-width="2" fill="none"/><path d="M2841 1040.6h-2v-1.03h2"/><path d="M2840 1094.34l-4.64-14.27h9.28z" stroke="#000" stroke-width="2"/><path d="M2360 918.57h160v120h-160z" stroke="#000" stroke-width="2" fill="#fff"/><use xlink:href="#av" transform="matrix(1,0,0,1,2372,930.5714285714785) translate(41.05 50.4)"/><path d="M2122 778.57h218.5" stroke="#000" stroke-width="2" fill="none"/><path d="M2122.03 779.57H2121v-2h1.03"/><path d="M2355.76 778.57l-14.26 4.64v-9.26z" stroke="#000" stroke-width="2"/><path d="M2522 778.57h218.5" stroke="#000" stroke-width="2" fill="none"/><path d="M2522.03 779.57H2521v-2h1.03"/><path d="M2755.76 778.57l-14.26 4.64v-9.26z" stroke="#000" stroke-width="2"/><path d="M2922 778.57h218.5" stroke="#000" stroke-width="2" fill="none"/><path d="M2922.03 779.57H2921v-2h1.03"/><path d="M3155.76 778.57l-14.26 4.64v-9.26z" stroke="#000" stroke-width="2"/><path d="M2840 840.57v58.5" stroke="#000" stroke-width="2" fill="none"/><path d="M2841 840.6h-2v-1.03h2"/><path d="M2840 914.34l-4.64-14.27h9.28z" stroke="#000" stroke-width="2"/><path d="M2440 840.57v58.5" stroke="#000" stroke-width="2" fill="none"/><path d="M2441 840.6h-2v-1.03h2"/><path d="M2440 914.34l-4.64-14.27h9.28z" stroke="#000" stroke-width="2"/><path d="M2922 978.57h9.74m9.75 0h19.48m9.74 0h19.5m9.74 0h19.48m9.75 0h19.48m9.74 0h19.5m9.73 0h19.5m9.74 0h19.48m9.74 0h19.5m9.73 0h19.5m9.74 0h19.48m9.74 0h6.18v-13.3m0-9.75v-19.5m0-9.74V906.8m0-9.75v-19.5m0-9.73v-9.75" stroke="#999" stroke-width="2" fill="none"/><path d="M2922.03 979.57H2921v-2h1.03" fill="#999"/><path d="M3240 842.8l4.64 14.27h-9.28z" stroke="#999" stroke-width="2" fill="#999"/><use xlink:href="#aw" transform="matrix(1,0,0,1,3093.7125,952.9714285714786) translate(0 14.4)"/><path d="M3238.3 716.57v-10.14m0-10.15v-18.7h-1.58m-10.14 0h-20.3m-10.13 0h-20.3m-10.13 0h-20.3m-10.13 0H3115m-10.14 0h-20.3m-10.14 0h-20.28m-10.15 0h-20.3m-10.14 0h-20.3m-10.13 0h-20.3m-10.13 0h-20.3m-10.13 0h-20.3m-10.13 0h-19.08v1.2m0 10.15v10.14" stroke="#999" stroke-width="2" fill="none"/><path d="M3239.3 717.57h-2v-1.02h2" fill="#999"/><path d="M2872.76 714.34l-4.64-14.27h9.27z" stroke="#999" stroke-width="2" fill="#999"/><use xlink:href="#aw" transform="matrix(1,0,0,1,3025.604110223376,651.9714285714784) translate(0 14.4)"/><path d="M2840 716.57v-9.93m0-9.93v-19.13h-.72m-9.92 0h-19.86m-9.93 0h-19.86m-9.92 0h-19.86m-9.92 0h-19.86m-9.93 0h-19.85m-9.93 0h-19.86m-9.92 0h-19.86m-9.93 0H2601m-9.94 0h-19.86m-9.92 0h-19.86m-9.93 0h-19.87m-9.93 0h-18.22v1.64m0 9.94v9.93" stroke="#999" stroke-width="2" fill="none"/><path d="M2841 717.57h-2v-1.02h2" fill="#999"/><path d="M2483.48 714.34l-4.63-14.27h9.27z" stroke="#999" stroke-width="2" fill="#999"/><use xlink:href="#aw" transform="matrix(1,0,0,1,2631.8174187451878,651.9714285714784) translate(0 14.4)"/><path d="M2399.6 716.57v-10m0-9.98v-19.03h-.96m-10 0h-19.98m-10 0h-19.97m-10 0h-20m-9.98 0h-19.98m-10 0h-19.98m-10 0h-19.97m-10 0h-20m-9.98 0h-20m-9.98 0h-19.98m-10 0h-19.98m-10 0h-19.97m-10 0h-18.46v1.52m0 9.98v10" stroke="#999" stroke-width="2" fill="none"/><path d="M2400.6 717.57h-2v-1.02h2" fill="#999"/><path d="M2040.44 714.34l-4.63-14.27h9.28z" stroke="#999" stroke-width="2" fill="#999"/><use xlink:href="#aw" transform="matrix(1,0,0,1,2190.1015146619447,651.9714285714784) translate(0 14.4)"/><path d="M140 1380h3180v220H140z" stroke="#000" stroke-width="2" fill="#fff"/><use xlink:href="#ax" transform="matrix(1,0,0,1,145,1385) translate(1537.025 109.83055555555555)"/><path d="M1018 1222v138.5" stroke="#000" stroke-width="2" fill="none"/><path d="M1019 1222.03h-2V1221h2"/><path d="M1018 1375.76l-4.64-14.26h9.28z" stroke="#000" stroke-width="2"/><path d="M2839.43 1220.57v139.93" stroke="#000" stroke-width="2" fill="none"/><path d="M2840.43 1220.6h-2v-1.03h2"/><path d="M2839.43 1375.76l-4.64-14.26h9.26z" stroke="#000" stroke-width="2"/></g><defs><path d="M185-189c-5-48-123-54-124 2 14 75 158 14 163 119 3 78-121 87-175 55-17-10-28-26-33-46l33-7c5 56 141 63 141-1 0-78-155-14-162-118-5-82 145-84 179-34 5 7 8 16 11 25" id="ay"/><path d="M96-169c-40 0-48 33-48 73s9 75 48 75c24 0 41-14 43-38l32 2c-6 37-31 61-74 61-59 0-76-41-82-99-10-93 101-131 147-64 4 7 5 14 7 22l-32 3c-4-21-16-35-41-35" id="az"/><path d="M114-163C36-179 61-72 57 0H25l-1-190h30c1 12-1 29 2 39 6-27 23-49 58-41v29" id="aA"/><path d="M100-194c63 0 86 42 84 106H49c0 40 14 67 53 68 26 1 43-12 49-29l28 8c-11 28-37 45-77 45C44 4 14-33 15-96c1-61 26-98 85-98zm52 81c6-60-76-77-97-28-3 7-6 17-6 28h103" id="aB"/><path d="M117-194c89-4 53 116 60 194h-32v-121c0-31-8-49-39-48C34-167 62-67 57 0H25l-1-190h30c1 10-1 24 2 32 11-22 29-35 61-36" id="aC"/><g id="a"><use transform="matrix(0.06234567901234567,0,0,0.06234567901234567,0,0)" xlink:href="#ay"/><use transform="matrix(0.06234567901234567,0,0,0.06234567901234567,14.96296296296296,0)" xlink:href="#az"/><use transform="matrix(0.06234567901234567,0,0,0.06234567901234567,26.18518518518518,0)" xlink:href="#aA"/><use transform="matrix(0.06234567901234567,0,0,0.06234567901234567,33.60432098765431,0)" xlink:href="#aB"/><use transform="matrix(0.06234567901234567,0,0,0.06234567901234567,46.073456790123444,0)" xlink:href="#aB"/><use transform="matrix(0.06234567901234567,0,0,0.06234567901234567,58.54259259259258,0)" xlink:href="#aC"/></g><path d="M205 0l-28-72H64L36 0H1l101-248h38L239 0h-34zm-38-99l-47-123c-12 45-31 82-46 123h93" id="aD"/><use transform="matrix(0.06234567901234567,0,0,0.06234567901234567,0,0)" xlink:href="#aD" id="b"/><path d="M160-131c35 5 61 23 61 61C221 17 115-2 30 0v-248c76 3 177-17 177 60 0 33-19 50-47 57zm-97-11c50-1 110 9 110-42 0-47-63-36-110-37v79zm0 115c55-2 124 14 124-45 0-56-70-42-124-44v89" id="aE"/><use transform="matrix(0.06234567901234567,0,0,0.06234567901234567,0,0)" xlink:href="#aE" id="c"/><path d="M240 0l2-218c-23 76-54 145-80 218h-23L58-218 59 0H30v-248h44l77 211c21-75 51-140 76-211h43V0h-30" id="aF"/><path d="M100-194c62-1 85 37 85 99 1 63-27 99-86 99S16-35 15-95c0-66 28-99 85-99zM99-20c44 1 53-31 53-75 0-43-8-75-51-75s-53 32-53 75 10 74 51 75" id="aG"/><path d="M85-194c31 0 48 13 60 33l-1-100h32l1 261h-30c-2-10 0-23-3-31C134-8 116 4 85 4 32 4 16-35 15-94c0-66 23-100 70-100zm9 24c-40 0-46 34-46 75 0 40 6 74 45 74 42 0 51-32 51-76 0-42-9-74-50-73" id="aH"/><path d="M84 4C-5 8 30-112 23-190h32v120c0 31 7 50 39 49 72-2 45-101 50-169h31l1 190h-30c-1-10 1-25-2-33-11 22-28 36-60 37" id="aI"/><path d="M24 0v-261h32V0H24" id="aJ"/><g id="d"><use transform="matrix(0.06234567901234567,0,0,0.06234567901234567,0,0)" xlink:href="#aF"/><use transform="matrix(0.06234567901234567,0,0,0.06234567901234567,18.641358024691353,0)" xlink:href="#aG"/><use transform="matrix(0.06234567901234567,0,0,0.06234567901234567,31.110493827160486,0)" xlink:href="#aH"/><use transform="matrix(0.06234567901234567,0,0,0.06234567901234567,43.57962962962962,0)" xlink:href="#aI"/><use transform="matrix(0.06234567901234567,0,0,0.06234567901234567,56.048765432098755,0)" xlink:href="#aJ"/><use transform="matrix(0.06234567901234567,0,0,0.06234567901234567,60.97407407407406,0)" xlink:href="#aB"/></g><use transform="matrix(0.06234567901234567,0,0,0.06234567901234567,0,0)" xlink:href="#aE" id="e"/><use transform="matrix(0.06234567901234567,0,0,0.06234567901234567,0,0)" xlink:href="#aD" id="f"/><path d="M190 0L58-211 59 0H30v-248h39L202-35l-2-213h31V0h-41" id="aK"/><path d="M59-47c-2 24 18 29 38 22v24C64 9 27 4 27-40v-127H5v-23h24l9-43h21v43h35v23H59v120" id="aL"/><path d="M206 0h-36l-40-164L89 0H53L-1-190h32L70-26l43-164h34l41 164 42-164h31" id="aM"/><path d="M143 0L79-87 56-68V0H24v-261h32v163l83-92h37l-77 82L181 0h-38" id="aN"/><path d="M24-231v-30h32v30H24zM24 0v-190h32V0H24" id="aO"/><path d="M177-190C167-65 218 103 67 71c-23-6-38-20-44-43l32-5c15 47 100 32 89-28v-30C133-14 115 1 83 1 29 1 15-40 15-95c0-56 16-97 71-98 29-1 48 16 59 35 1-10 0-23 2-32h30zM94-22c36 0 50-32 50-73 0-42-14-75-50-75-39 0-46 34-46 75s6 73 46 73" id="aP"/><g id="g"><use transform="matrix(0.06234567901234567,0,0,0.06234567901234567,0,0)" xlink:href="#aK"/><use transform="matrix(0.06234567901234567,0,0,0.06234567901234567,16.147530864197527,0)" xlink:href="#aB"/><use transform="matrix(0.06234567901234567,0,0,0.06234567901234567,28.61666666666666,0)" xlink:href="#aL"/><use transform="matrix(0.06234567901234567,0,0,0.06234567901234567,34.85123456790123,0)" xlink:href="#aM"/><use transform="matrix(0.06234567901234567,0,0,0.06234567901234567,50.99876543209876,0)" xlink:href="#aG"/><use transform="matrix(0.06234567901234567,0,0,0.06234567901234567,63.46790123456789,0)" xlink:href="#aA"/><use transform="matrix(0.06234567901234567,0,0,0.06234567901234567,70.88703703703702,0)" xlink:href="#aN"/><use transform="matrix(0.06234567901234567,0,0,0.06234567901234567,82.10925925925923,0)" xlink:href="#aO"/><use transform="matrix(0.06234567901234567,0,0,0.06234567901234567,87.03456790123454,0)" xlink:href="#aC"/><use transform="matrix(0.06234567901234567,0,0,0.06234567901234567,99.50370370370368,0)" xlink:href="#aP"/></g><path d="M30 0v-248h33v221h125V0H30" id="aQ"/><path d="M141-36C126-15 110 5 73 4 37 3 15-17 15-53c-1-64 63-63 125-63 3-35-9-54-41-54-24 1-41 7-42 31l-33-3c5-37 33-52 76-52 45 0 72 20 72 64v82c-1 20 7 32 28 27v20c-31 9-61-2-59-35zM48-53c0 20 12 33 32 33 41-3 63-29 60-74-43 2-92-5-92 41" id="aR"/><path d="M179-190L93 31C79 59 56 82 12 73V49c39 6 53-20 64-50L1-190h34L92-34l54-156h33" id="aS"/><g id="h"><use transform="matrix(0.06234567901234567,0,0,0.06234567901234567,0,0)" xlink:href="#aQ"/><use transform="matrix(0.06234567901234567,0,0,0.06234567901234567,12.469135802469133,0)" xlink:href="#aR"/><use transform="matrix(0.06234567901234567,0,0,0.06234567901234567,24.938271604938265,0)" xlink:href="#aS"/><use transform="matrix(0.06234567901234567,0,0,0.06234567901234567,36.16049382716049,0)" xlink:href="#aB"/><use transform="matrix(0.06234567901234567,0,0,0.06234567901234567,48.62962962962962,0)" xlink:href="#aA"/></g><path d="M232-93c-1 65-40 97-104 97C67 4 28-28 28-90v-158h33c8 89-33 224 67 224 102 0 64-133 71-224h33v155" id="aT"/><path d="M33 0v-248h34V0H33" id="aU"/><g id="i"><use transform="matrix(0.05,0,0,0.05,0,0)" xlink:href="#aT"/><use transform="matrix(0.05,0,0,0.05,12.950000000000001,0)" xlink:href="#aU"/></g><g id="j"><use transform="matrix(0.05,0,0,0.05,0,0)" xlink:href="#aQ"/><use transform="matrix(0.05,0,0,0.05,10,0)" xlink:href="#aR"/><use transform="matrix(0.05,0,0,0.05,20,0)" xlink:href="#aS"/><use transform="matrix(0.05,0,0,0.05,29,0)" xlink:href="#aB"/><use transform="matrix(0.05,0,0,0.05,39,0)" xlink:href="#aA"/></g><g id="k"><use transform="matrix(0.05,0,0,0.05,0,0)" xlink:href="#ay"/><use transform="matrix(0.05,0,0,0.05,12,0)" xlink:href="#aL"/><use transform="matrix(0.05,0,0,0.05,17,0)" xlink:href="#aR"/><use transform="matrix(0.05,0,0,0.05,27,0)" xlink:href="#aL"/><use transform="matrix(0.05,0,0,0.05,32,0)" xlink:href="#aB"/></g><path d="M135-143c-3-34-86-38-87 0 15 53 115 12 119 90S17 21 10-45l28-5c4 36 97 45 98 0-10-56-113-15-118-90-4-57 82-63 122-42 12 7 21 19 24 35" id="aV"/><g id="l"><use transform="matrix(0.05,0,0,0.05,0,0)" xlink:href="#aE"/><use transform="matrix(0.05,0,0,0.05,12,0)" xlink:href="#aI"/><use transform="matrix(0.05,0,0,0.05,22,0)" xlink:href="#aV"/><use transform="matrix(0.05,0,0,0.05,31,0)" xlink:href="#aO"/><use transform="matrix(0.05,0,0,0.05,34.95,0)" xlink:href="#aC"/><use transform="matrix(0.05,0,0,0.05,44.95,0)" xlink:href="#aB"/><use transform="matrix(0.05,0,0,0.05,54.95,0)" xlink:href="#aV"/><use transform="matrix(0.05,0,0,0.05,63.95,0)" xlink:href="#aV"/></g><path d="M30-248c118-7 216 8 213 122C240-48 200 0 122 0H30v-248zM63-27c89 8 146-16 146-99s-60-101-146-95v194" id="aW"/><g id="m"><use transform="matrix(0.05,0,0,0.05,0,0)" xlink:href="#aW"/><use transform="matrix(0.05,0,0,0.05,12.950000000000001,0)" xlink:href="#aR"/><use transform="matrix(0.05,0,0,0.05,22.950000000000003,0)" xlink:href="#aL"/><use transform="matrix(0.05,0,0,0.05,27.950000000000003,0)" xlink:href="#aR"/></g><path d="M33-154v-36h34v36H33zM33 0v-36h34V0H33" id="aX"/><g id="n"><use transform="matrix(0.07469135802469135,0,0,0.07469135802469135,0,0)" xlink:href="#aK"/><use transform="matrix(0.07469135802469135,0,0,0.07469135802469135,19.34506172839506,0)" xlink:href="#aG"/><use transform="matrix(0.07469135802469135,0,0,0.07469135802469135,34.28333333333333,0)" xlink:href="#aL"/><use transform="matrix(0.07469135802469135,0,0,0.07469135802469135,41.752469135802464,0)" xlink:href="#aB"/><use transform="matrix(0.07469135802469135,0,0,0.07469135802469135,56.690740740740736,0)" xlink:href="#aV"/><use transform="matrix(0.07469135802469135,0,0,0.07469135802469135,70.13518518518518,0)" xlink:href="#aX"/></g><path d="M62-168c30 0 50 19 50 48S92-70 62-70c-29 0-48-21-48-50s20-48 48-48" id="aY"/><use transform="matrix(0.06234567901234565,0,0,0.06234567901234565,0,0)" xlink:href="#aY" id="p"/><g id="q"><use transform="matrix(0.06234567901234565,0,0,0.06234567901234565,0,0)" xlink:href="#aF"/><use transform="matrix(0.06234567901234565,0,0,0.06234567901234565,18.64135802469135,0)" xlink:href="#aG"/><use transform="matrix(0.06234567901234565,0,0,0.06234567901234565,31.110493827160482,0)" xlink:href="#aH"/><use transform="matrix(0.06234567901234565,0,0,0.06234567901234565,43.579629629629615,0)" xlink:href="#aI"/><use transform="matrix(0.06234567901234565,0,0,0.06234567901234565,56.04876543209875,0)" xlink:href="#aJ"/><use transform="matrix(0.06234567901234565,0,0,0.06234567901234565,60.97407407407405,0)" xlink:href="#aB"/></g><use transform="matrix(0.06234567901234565,0,0,0.06234567901234565,0,0)" xlink:href="#aD" id="r"/><g id="s"><use transform="matrix(0.06234567901234565,0,0,0.06234567901234565,0,0)" xlink:href="#aO"/><use transform="matrix(0.06234567901234565,0,0,0.06234567901234565,4.925308641975307,0)" xlink:href="#aV"/></g><path d="M106-169C34-169 62-67 57 0H25v-261h32l-1 103c12-21 28-36 61-36 89 0 53 116 60 194h-32v-121c2-32-8-49-39-48" id="aZ"/><g id="t"><use transform="matrix(0.06234567901234565,0,0,0.06234567901234565,0,0)" xlink:href="#aL"/><use transform="matrix(0.06234567901234565,0,0,0.06234567901234565,6.234567901234565,0)" xlink:href="#aZ"/><use transform="matrix(0.06234567901234565,0,0,0.06234567901234565,18.703703703703695,0)" xlink:href="#aB"/></g><path d="M210-169c-67 3-38 105-44 169h-31v-121c0-29-5-50-35-48C34-165 62-65 56 0H25l-1-190h30c1 10-1 24 2 32 10-44 99-50 107 0 11-21 27-35 58-36 85-2 47 119 55 194h-31v-121c0-29-5-49-35-48" id="ba"/><g id="u"><use transform="matrix(0.06234567901234565,0,0,0.06234567901234565,0,0)" xlink:href="#ba"/><use transform="matrix(0.06234567901234565,0,0,0.06234567901234565,18.64135802469135,0)" xlink:href="#aR"/><use transform="matrix(0.06234567901234565,0,0,0.06234567901234565,31.110493827160482,0)" xlink:href="#aO"/><use transform="matrix(0.06234567901234565,0,0,0.06234567901234565,36.03580246913579,0)" xlink:href="#aC"/></g><g id="v"><use transform="matrix(0.06234567901234565,0,0,0.06234567901234565,0,0)" xlink:href="#ba"/><use transform="matrix(0.06234567901234565,0,0,0.06234567901234565,18.64135802469135,0)" xlink:href="#aG"/><use transform="matrix(0.06234567901234565,0,0,0.06234567901234565,31.110493827160482,0)" xlink:href="#aH"/><use transform="matrix(0.06234567901234565,0,0,0.06234567901234565,43.579629629629615,0)" xlink:href="#aI"/><use transform="matrix(0.06234567901234565,0,0,0.06234567901234565,56.04876543209875,0)" xlink:href="#aJ"/><use transform="matrix(0.06234567901234565,0,0,0.06234567901234565,60.97407407407405,0)" xlink:href="#aB"/></g><path d="M101-234c-31-9-42 10-38 44h38v23H63V0H32v-167H5v-23h27c-7-52 17-82 69-68v24" id="bb"/><g id="w"><use transform="matrix(0.06234567901234565,0,0,0.06234567901234565,0,0)" xlink:href="#aG"/><use transform="matrix(0.06234567901234565,0,0,0.06234567901234565,12.46913580246913,0)" xlink:href="#bb"/></g><g id="x"><use transform="matrix(0.06234567901234565,0,0,0.06234567901234565,0,0)" xlink:href="#aV"/><use transform="matrix(0.06234567901234565,0,0,0.06234567901234565,11.222222222222218,0)" xlink:href="#az"/><use transform="matrix(0.06234567901234565,0,0,0.06234567901234565,22.444444444444436,0)" xlink:href="#aA"/><use transform="matrix(0.06234567901234565,0,0,0.06234567901234565,29.863580246913568,0)" xlink:href="#aB"/><use transform="matrix(0.06234567901234565,0,0,0.06234567901234565,42.3327160493827,0)" xlink:href="#aB"/><use transform="matrix(0.06234567901234565,0,0,0.06234567901234565,54.80185185185183,0)" xlink:href="#aC"/></g><path d="M47-170H22l-4-78h33" id="bc"/><g id="z"><use transform="matrix(0.06234567901234565,0,0,0.06234567901234565,0,0)" xlink:href="#aD"/><use transform="matrix(0.06234567901234565,0,0,0.06234567901234565,14.962962962962957,0)" xlink:href="#bc"/><use transform="matrix(0.06234567901234565,0,0,0.06234567901234565,19.20246913580246,0)" xlink:href="#aV"/></g><path d="M108 0H70L1-190h34L89-25l56-165h34" id="bd"/><g id="A"><use transform="matrix(0.06234567901234565,0,0,0.06234567901234565,0,0)" xlink:href="#bd"/><use transform="matrix(0.06234567901234565,0,0,0.06234567901234565,11.222222222222218,0)" xlink:href="#aO"/><use transform="matrix(0.06234567901234565,0,0,0.06234567901234565,16.147530864197524,0)" xlink:href="#aB"/><use transform="matrix(0.06234567901234565,0,0,0.06234567901234565,28.616666666666653,0)" xlink:href="#aM"/></g><g id="B"><use transform="matrix(0.06234567901234565,0,0,0.06234567901234565,0,0)" xlink:href="#aO"/><use transform="matrix(0.06234567901234565,0,0,0.06234567901234565,4.925308641975307,0)" xlink:href="#aV"/></g><g id="C"><use transform="matrix(0.06234567901234565,0,0,0.06234567901234565,0,0)" xlink:href="#aL"/><use transform="matrix(0.06234567901234565,0,0,0.06234567901234565,6.234567901234565,0)" xlink:href="#aZ"/><use transform="matrix(0.06234567901234565,0,0,0.06234567901234565,18.703703703703695,0)" xlink:href="#aB"/></g><g id="D"><use transform="matrix(0.06234567901234565,0,0,0.06234567901234565,0,0)" xlink:href="#aJ"/><use transform="matrix(0.06234567901234565,0,0,0.06234567901234565,4.925308641975307,0)" xlink:href="#aG"/><use transform="matrix(0.06234567901234565,0,0,0.06234567901234565,17.39444444444444,0)" xlink:href="#aM"/><use transform="matrix(0.06234567901234565,0,0,0.06234567901234565,33.541975308641966,0)" xlink:href="#aB"/><use transform="matrix(0.06234567901234565,0,0,0.06234567901234565,46.0111111111111,0)" xlink:href="#aV"/><use transform="matrix(0.06234567901234565,0,0,0.06234567901234565,57.23333333333332,0)" xlink:href="#aL"/></g><g id="E"><use transform="matrix(0.06234567901234565,0,0,0.06234567901234565,0,0)" xlink:href="#aO"/><use transform="matrix(0.06234567901234565,0,0,0.06234567901234565,4.925308641975307,0)" xlink:href="#aC"/></g><g id="F"><use transform="matrix(0.06234567901234565,0,0,0.06234567901234565,0,0)" xlink:href="#aZ"/><use transform="matrix(0.06234567901234565,0,0,0.06234567901234565,12.46913580246913,0)" xlink:href="#aO"/><use transform="matrix(0.06234567901234565,0,0,0.06234567901234565,17.39444444444444,0)" xlink:href="#aB"/><use transform="matrix(0.06234567901234565,0,0,0.06234567901234565,29.86358024691357,0)" xlink:href="#aA"/><use transform="matrix(0.06234567901234565,0,0,0.06234567901234565,37.28271604938271,0)" xlink:href="#aR"/><use transform="matrix(0.06234567901234565,0,0,0.06234567901234565,49.75185185185184,0)" xlink:href="#az"/><use transform="matrix(0.06234567901234565,0,0,0.06234567901234565,60.97407407407405,0)" xlink:href="#aZ"/><use transform="matrix(0.06234567901234565,0,0,0.06234567901234565,73.44320987654318,0)" xlink:href="#aS"/></g><g id="G"><use transform="matrix(0.06234567901234565,0,0,0.06234567901234565,0,0)" xlink:href="#aL"/><use transform="matrix(0.06234567901234565,0,0,0.06234567901234565,6.234567901234565,0)" xlink:href="#aZ"/><use transform="matrix(0.06234567901234565,0,0,0.06234567901234565,18.703703703703695,0)" xlink:href="#aO"/><use transform="matrix(0.06234567901234565,0,0,0.06234567901234565,23.629012345679,0)" xlink:href="#aV"/></g><path d="M68-38c1 34 0 65-14 84H32c9-13 17-26 17-46H33v-38h35" id="be"/><g id="H"><use transform="matrix(0.06234567901234565,0,0,0.06234567901234565,0,0)" xlink:href="#aV"/><use transform="matrix(0.06234567901234565,0,0,0.06234567901234565,11.222222222222218,0)" xlink:href="#az"/><use transform="matrix(0.06234567901234565,0,0,0.06234567901234565,22.444444444444436,0)" xlink:href="#aA"/><use transform="matrix(0.06234567901234565,0,0,0.06234567901234565,29.863580246913568,0)" xlink:href="#aB"/><use transform="matrix(0.06234567901234565,0,0,0.06234567901234565,42.3327160493827,0)" xlink:href="#aB"/><use transform="matrix(0.06234567901234565,0,0,0.06234567901234565,54.80185185185183,0)" xlink:href="#aC"/><use transform="matrix(0.06234567901234565,0,0,0.06234567901234565,67.27098765432096,0)" xlink:href="#be"/></g><g id="I"><use transform="matrix(0.06234567901234565,0,0,0.06234567901234565,0,0)" xlink:href="#aB"/><use transform="matrix(0.06234567901234565,0,0,0.06234567901234565,12.46913580246913,0)" xlink:href="#bd"/><use transform="matrix(0.06234567901234565,0,0,0.06234567901234565,23.691358024691347,0)" xlink:href="#aB"/><use transform="matrix(0.06234567901234565,0,0,0.06234567901234565,36.16049382716048,0)" xlink:href="#aA"/><use transform="matrix(0.06234567901234565,0,0,0.06234567901234565,43.579629629629615,0)" xlink:href="#aS"/></g><g id="J"><use transform="matrix(0.06234567901234565,0,0,0.06234567901234565,0,0)" xlink:href="#aG"/><use transform="matrix(0.06234567901234565,0,0,0.06234567901234565,12.46913580246913,0)" xlink:href="#aL"/><use transform="matrix(0.06234567901234565,0,0,0.06234567901234565,18.703703703703695,0)" xlink:href="#aZ"/><use transform="matrix(0.06234567901234565,0,0,0.06234567901234565,31.172839506172828,0)" xlink:href="#aB"/><use transform="matrix(0.06234567901234565,0,0,0.06234567901234565,43.64197530864196,0)" xlink:href="#aA"/></g><path d="M87 75C49 33 22-17 22-94c0-76 28-126 65-167h31c-38 41-64 92-64 168S80 34 118 75H87" id="bf"/><g id="K"><use transform="matrix(0.06234567901234565,0,0,0.06234567901234565,0,0)" xlink:href="#bf"/><use transform="matrix(0.06234567901234565,0,0,0.06234567901234565,7.419135802469133,0)" xlink:href="#aV"/><use transform="matrix(0.06234567901234565,0,0,0.06234567901234565,18.64135802469135,0)" xlink:href="#aI"/><use transform="matrix(0.06234567901234565,0,0,0.06234567901234565,31.110493827160482,0)" xlink:href="#az"/><use transform="matrix(0.06234567901234565,0,0,0.06234567901234565,42.3327160493827,0)" xlink:href="#aZ"/></g><g id="L"><use transform="matrix(0.06234567901234565,0,0,0.06234567901234565,0,0)" xlink:href="#aR"/><use transform="matrix(0.06234567901234565,0,0,0.06234567901234565,12.46913580246913,0)" xlink:href="#aV"/></g><path d="M33-261c38 41 65 92 65 168S71 34 33 75H2C39 34 66-17 66-93S39-220 2-261h31" id="bg"/><g id="M"><use transform="matrix(0.06234567901234565,0,0,0.06234567901234565,0,0)" xlink:href="#aE"/><use transform="matrix(0.06234567901234565,0,0,0.06234567901234565,14.962962962962957,0)" xlink:href="#bc"/><use transform="matrix(0.06234567901234565,0,0,0.06234567901234565,19.20246913580246,0)" xlink:href="#aV"/><use transform="matrix(0.06234567901234565,0,0,0.06234567901234565,30.424691358024678,0)" xlink:href="#bg"/></g><use transform="matrix(0.06234567901234565,0,0,0.06234567901234565,0,0)" xlink:href="#aR" id="N"/><path d="M115-194c53 0 69 39 70 98 0 66-23 100-70 100C84 3 66-7 56-30L54 0H23l1-261h32v101c10-23 28-34 59-34zm-8 174c40 0 45-34 45-75 0-40-5-75-45-74-42 0-51 32-51 76 0 43 10 73 51 73" id="bh"/><g id="O"><use transform="matrix(0.06234567901234565,0,0,0.06234567901234565,0,0)" xlink:href="#aV"/><use transform="matrix(0.06234567901234565,0,0,0.06234567901234565,11.222222222222218,0)" xlink:href="#aI"/><use transform="matrix(0.06234567901234565,0,0,0.06234567901234565,23.691358024691347,0)" xlink:href="#bh"/><use transform="matrix(0.06234567901234565,0,0,0.06234567901234565,36.16049382716048,0)" xlink:href="#bd"/><use transform="matrix(0.06234567901234565,0,0,0.06234567901234565,47.382716049382694,0)" xlink:href="#aO"/><use transform="matrix(0.06234567901234565,0,0,0.06234567901234565,52.308024691358,0)" xlink:href="#aB"/><use transform="matrix(0.06234567901234565,0,0,0.06234567901234565,64.77716049382713,0)" xlink:href="#aM"/></g><g id="P"><use transform="matrix(0.06234567901234565,0,0,0.06234567901234565,0,0)" xlink:href="#aO"/><use transform="matrix(0.06234567901234565,0,0,0.06234567901234565,4.925308641975307,0)" xlink:href="#aL"/></g><use transform="matrix(0.06234567901234567,0,0,0.06234567901234567,0,0)" xlink:href="#aY" id="Q"/><path d="M127-220V0H93v-220H8v-28h204v28h-85" id="bi"/><g id="R"><use transform="matrix(0.06234567901234567,0,0,0.06234567901234567,0,0)" xlink:href="#bi"/><use transform="matrix(0.06234567901234567,0,0,0.06234567901234567,13.653703703703702,0)" xlink:href="#aZ"/><use transform="matrix(0.06234567901234567,0,0,0.06234567901234567,26.122839506172834,0)" xlink:href="#aB"/></g><path d="M233-177c-1 41-23 64-60 70L243 0h-38l-65-103H63V0H30v-248c88 3 205-21 203 71zM63-129c60-2 137 13 137-47 0-61-80-42-137-45v92" id="bj"/><g id="S"><use transform="matrix(0.06234567901234567,0,0,0.06234567901234567,0,0)" xlink:href="#bj"/><use transform="matrix(0.06234567901234567,0,0,0.06234567901234567,16.147530864197527,0)" xlink:href="#aG"/><use transform="matrix(0.06234567901234567,0,0,0.06234567901234567,28.61666666666666,0)" xlink:href="#aI"/><use transform="matrix(0.06234567901234567,0,0,0.06234567901234567,41.08580246913579,0)" xlink:href="#aL"/><use transform="matrix(0.06234567901234567,0,0,0.06234567901234567,47.320370370370355,0)" xlink:href="#aB"/><use transform="matrix(0.06234567901234567,0,0,0.06234567901234567,59.78950617283949,0)" xlink:href="#aA"/></g><g id="T"><use transform="matrix(0.06234567901234567,0,0,0.06234567901234567,0,0)" xlink:href="#aO"/><use transform="matrix(0.06234567901234567,0,0,0.06234567901234567,4.925308641975308,0)" xlink:href="#aV"/></g><path d="M115-194c55 1 70 41 70 98S169 2 115 4C84 4 66-9 55-30l1 105H24l-1-265h31l2 30c10-21 28-34 59-34zm-8 174c40 0 45-34 45-75s-6-73-45-74c-42 0-51 32-51 76 0 43 10 73 51 73" id="bk"/><g id="U"><use transform="matrix(0.06234567901234567,0,0,0.06234567901234567,0,0)" xlink:href="#aA"/><use transform="matrix(0.06234567901234567,0,0,0.06234567901234567,7.4191358024691345,0)" xlink:href="#aB"/><use transform="matrix(0.06234567901234567,0,0,0.06234567901234567,19.888271604938268,0)" xlink:href="#aV"/><use transform="matrix(0.06234567901234567,0,0,0.06234567901234567,31.11049382716049,0)" xlink:href="#bk"/><use transform="matrix(0.06234567901234567,0,0,0.06234567901234567,43.57962962962962,0)" xlink:href="#aG"/><use transform="matrix(0.06234567901234567,0,0,0.06234567901234567,56.048765432098755,0)" xlink:href="#aC"/><use transform="matrix(0.06234567901234567,0,0,0.06234567901234567,68.51790123456789,0)" xlink:href="#bh"/><use transform="matrix(0.06234567901234567,0,0,0.06234567901234567,80.98703703703703,0)" xlink:href="#aO"/><use transform="matrix(0.06234567901234567,0,0,0.06234567901234567,85.91234567901233,0)" xlink:href="#aJ"/><use transform="matrix(0.06234567901234567,0,0,0.06234567901234567,90.83765432098764,0)" xlink:href="#aB"/></g><g id="V"><use transform="matrix(0.06234567901234567,0,0,0.06234567901234567,0,0)" xlink:href="#bb"/><use transform="matrix(0.06234567901234567,0,0,0.06234567901234567,6.234567901234566,0)" xlink:href="#aG"/><use transform="matrix(0.06234567901234567,0,0,0.06234567901234567,18.7037037037037,0)" xlink:href="#aA"/></g><g id="W"><use transform="matrix(0.06234567901234567,0,0,0.06234567901234567,0,0)" xlink:href="#az"/><use transform="matrix(0.06234567901234567,0,0,0.06234567901234567,11.22222222222222,0)" xlink:href="#aA"/><use transform="matrix(0.06234567901234567,0,0,0.06234567901234567,18.641358024691353,0)" xlink:href="#aB"/><use transform="matrix(0.06234567901234567,0,0,0.06234567901234567,31.110493827160486,0)" xlink:href="#aR"/><use transform="matrix(0.06234567901234567,0,0,0.06234567901234567,43.57962962962962,0)" xlink:href="#aL"/><use transform="matrix(0.06234567901234567,0,0,0.06234567901234567,49.81419753086419,0)" xlink:href="#aO"/><use transform="matrix(0.06234567901234567,0,0,0.06234567901234567,54.7395061728395,0)" xlink:href="#aC"/><use transform="matrix(0.06234567901234567,0,0,0.06234567901234567,67.20864197530864,0)" xlink:href="#aP"/></g><g id="X"><use transform="matrix(0.06234567901234567,0,0,0.06234567901234567,0,0)" xlink:href="#ba"/><use transform="matrix(0.06234567901234567,0,0,0.06234567901234567,18.641358024691353,0)" xlink:href="#aG"/><use transform="matrix(0.06234567901234567,0,0,0.06234567901234567,31.110493827160486,0)" xlink:href="#aH"/><use transform="matrix(0.06234567901234567,0,0,0.06234567901234567,43.57962962962962,0)" xlink:href="#aI"/><use transform="matrix(0.06234567901234567,0,0,0.06234567901234567,56.048765432098755,0)" xlink:href="#aJ"/><use transform="matrix(0.06234567901234567,0,0,0.06234567901234567,60.97407407407406,0)" xlink:href="#aB"/><use transform="matrix(0.06234567901234567,0,0,0.06234567901234567,73.4432098765432,0)" xlink:href="#aV"/></g><g id="Y"><use transform="matrix(0.06234567901234567,0,0,0.06234567901234567,0,0)" xlink:href="#aR"/><use transform="matrix(0.06234567901234567,0,0,0.06234567901234567,12.469135802469133,0)" xlink:href="#aC"/><use transform="matrix(0.06234567901234567,0,0,0.06234567901234567,24.938271604938265,0)" xlink:href="#aH"/></g><g id="Z"><use transform="matrix(0.06234567901234567,0,0,0.06234567901234567,0,0)" xlink:href="#aL"/><use transform="matrix(0.06234567901234567,0,0,0.06234567901234567,6.234567901234566,0)" xlink:href="#aA"/><use transform="matrix(0.06234567901234567,0,0,0.06234567901234567,13.653703703703702,0)" xlink:href="#aR"/><use transform="matrix(0.06234567901234567,0,0,0.06234567901234567,26.122839506172834,0)" xlink:href="#aC"/><use transform="matrix(0.06234567901234567,0,0,0.06234567901234567,38.59197530864196,0)" xlink:href="#aV"/><use transform="matrix(0.06234567901234567,0,0,0.06234567901234567,49.814197530864185,0)" xlink:href="#aO"/><use transform="matrix(0.06234567901234567,0,0,0.06234567901234567,54.73950617283949,0)" xlink:href="#aL"/><use transform="matrix(0.06234567901234567,0,0,0.06234567901234567,60.97407407407405,0)" xlink:href="#aO"/><use transform="matrix(0.06234567901234567,0,0,0.06234567901234567,65.89938271604936,0)" xlink:href="#aG"/><use transform="matrix(0.06234567901234567,0,0,0.06234567901234567,78.3685185185185,0)" xlink:href="#aC"/><use transform="matrix(0.06234567901234567,0,0,0.06234567901234567,90.83765432098764,0)" xlink:href="#aO"/><use transform="matrix(0.06234567901234567,0,0,0.06234567901234567,95.76296296296294,0)" xlink:href="#aC"/><use transform="matrix(0.06234567901234567,0,0,0.06234567901234567,108.23209876543208,0)" xlink:href="#aP"/></g><g id="aa"><use transform="matrix(0.06234567901234567,0,0,0.06234567901234567,0,0)" xlink:href="#bh"/><use transform="matrix(0.06234567901234567,0,0,0.06234567901234567,12.469135802469133,0)" xlink:href="#aB"/><use transform="matrix(0.06234567901234567,0,0,0.06234567901234567,24.938271604938265,0)" xlink:href="#aL"/><use transform="matrix(0.06234567901234567,0,0,0.06234567901234567,31.17283950617283,0)" xlink:href="#aM"/><use transform="matrix(0.06234567901234567,0,0,0.06234567901234567,47.320370370370355,0)" xlink:href="#aB"/><use transform="matrix(0.06234567901234567,0,0,0.06234567901234567,59.78950617283949,0)" xlink:href="#aB"/><use transform="matrix(0.06234567901234567,0,0,0.06234567901234567,72.25864197530862,0)" xlink:href="#aC"/></g><g id="ab"><use transform="matrix(0.06234567901234567,0,0,0.06234567901234567,0,0)" xlink:href="#aV"/><use transform="matrix(0.06234567901234567,0,0,0.06234567901234567,11.22222222222222,0)" xlink:href="#az"/><use transform="matrix(0.06234567901234567,0,0,0.06234567901234567,22.44444444444444,0)" xlink:href="#aA"/><use transform="matrix(0.06234567901234567,0,0,0.06234567901234567,29.863580246913575,0)" xlink:href="#aB"/><use transform="matrix(0.06234567901234567,0,0,0.06234567901234567,42.33271604938271,0)" xlink:href="#aB"/><use transform="matrix(0.06234567901234567,0,0,0.06234567901234567,54.80185185185184,0)" xlink:href="#aC"/><use transform="matrix(0.06234567901234567,0,0,0.06234567901234567,67.27098765432098,0)" xlink:href="#aV"/></g><g id="ac"><use transform="matrix(0.06234567901234567,0,0,0.06234567901234567,0,0)" xlink:href="#aF"/><use transform="matrix(0.06234567901234567,0,0,0.06234567901234567,18.641358024691353,0)" xlink:href="#aG"/><use transform="matrix(0.06234567901234567,0,0,0.06234567901234567,31.110493827160486,0)" xlink:href="#aH"/><use transform="matrix(0.06234567901234567,0,0,0.06234567901234567,43.57962962962962,0)" xlink:href="#aI"/><use transform="matrix(0.06234567901234567,0,0,0.06234567901234567,56.048765432098755,0)" xlink:href="#aJ"/><use transform="matrix(0.06234567901234567,0,0,0.06234567901234567,60.97407407407406,0)" xlink:href="#aB"/></g><path d="M212-179c-10-28-35-45-73-45-59 0-87 40-87 99 0 60 29 101 89 101 43 0 62-24 78-52l27 14C228-24 195 4 139 4 59 4 22-46 18-125c-6-104 99-153 187-111 19 9 31 26 39 46" id="bl"/><use transform="matrix(0.06234567901234567,0,0,0.06234567901234567,0,0)" xlink:href="#bl" id="ad"/><g id="ae"><use transform="matrix(0.06234567901234567,0,0,0.06234567901234567,0,0)" xlink:href="#aK"/><use transform="matrix(0.06234567901234567,0,0,0.06234567901234567,16.147530864197527,0)" xlink:href="#aB"/><use transform="matrix(0.06234567901234567,0,0,0.06234567901234567,28.61666666666666,0)" xlink:href="#aL"/><use transform="matrix(0.06234567901234567,0,0,0.06234567901234567,34.85123456790123,0)" xlink:href="#aM"/><use transform="matrix(0.06234567901234567,0,0,0.06234567901234567,50.99876543209876,0)" xlink:href="#aG"/><use transform="matrix(0.06234567901234567,0,0,0.06234567901234567,63.46790123456789,0)" xlink:href="#aA"/><use transform="matrix(0.06234567901234567,0,0,0.06234567901234567,70.88703703703702,0)" xlink:href="#aN"/><use transform="matrix(0.06234567901234567,0,0,0.06234567901234567,82.10925925925923,0)" xlink:href="#aO"/><use transform="matrix(0.06234567901234567,0,0,0.06234567901234567,87.03456790123454,0)" xlink:href="#aC"/><use transform="matrix(0.06234567901234567,0,0,0.06234567901234567,99.50370370370368,0)" xlink:href="#aP"/></g><g id="af"><use transform="matrix(0.06234567901234567,0,0,0.06234567901234567,0,0)" xlink:href="#aQ"/><use transform="matrix(0.06234567901234567,0,0,0.06234567901234567,12.469135802469133,0)" xlink:href="#aR"/><use transform="matrix(0.06234567901234567,0,0,0.06234567901234567,24.938271604938265,0)" xlink:href="#aS"/><use transform="matrix(0.06234567901234567,0,0,0.06234567901234567,36.16049382716049,0)" xlink:href="#aB"/><use transform="matrix(0.06234567901234567,0,0,0.06234567901234567,48.62962962962962,0)" xlink:href="#aA"/></g><path d="M30-248c87 1 191-15 191 75 0 78-77 80-158 76V0H30v-248zm33 125c57 0 124 11 124-50 0-59-68-47-124-48v98" id="bm"/><g id="ag"><use transform="matrix(0.06234567901234567,0,0,0.06234567901234567,0,0)" xlink:href="#bm"/><use transform="matrix(0.06234567901234567,0,0,0.06234567901234567,14.96296296296296,0)" xlink:href="#aB"/><use transform="matrix(0.06234567901234567,0,0,0.06234567901234567,27.432098765432094,0)" xlink:href="#aA"/><use transform="matrix(0.06234567901234567,0,0,0.06234567901234567,34.85123456790123,0)" xlink:href="#aV"/><use transform="matrix(0.06234567901234567,0,0,0.06234567901234567,46.07345679012345,0)" xlink:href="#aO"/><use transform="matrix(0.06234567901234567,0,0,0.06234567901234567,50.99876543209876,0)" xlink:href="#aV"/><use transform="matrix(0.06234567901234567,0,0,0.06234567901234567,62.22098765432098,0)" xlink:href="#aL"/><use transform="matrix(0.06234567901234567,0,0,0.06234567901234567,68.45555555555555,0)" xlink:href="#aB"/><use transform="matrix(0.06234567901234567,0,0,0.06234567901234567,80.92469135802469,0)" xlink:href="#aC"/><use transform="matrix(0.06234567901234567,0,0,0.06234567901234567,93.39382716049383,0)" xlink:href="#az"/><use transform="matrix(0.06234567901234567,0,0,0.06234567901234567,104.61604938271604,0)" xlink:href="#aB"/></g><path d="M137 0h-34L2-248h35l83 218 83-218h36" id="bn"/><g id="ah"><use transform="matrix(0.05,0,0,0.05,0,0)" xlink:href="#bn"/><use transform="matrix(0.05,0,0,0.05,11.65,0)" xlink:href="#aO"/><use transform="matrix(0.05,0,0,0.05,15.600000000000001,0)" xlink:href="#aB"/><use transform="matrix(0.05,0,0,0.05,25.6,0)" xlink:href="#aM"/></g><g id="ai"><use transform="matrix(0.05,0,0,0.05,0,0)" xlink:href="#bm"/><use transform="matrix(0.05,0,0,0.05,12,0)" xlink:href="#aA"/><use transform="matrix(0.05,0,0,0.05,17.95,0)" xlink:href="#aB"/><use transform="matrix(0.05,0,0,0.05,27.950000000000003,0)" xlink:href="#aV"/><use transform="matrix(0.05,0,0,0.05,36.95,0)" xlink:href="#aB"/><use transform="matrix(0.05,0,0,0.05,46.95,0)" xlink:href="#aC"/><use transform="matrix(0.05,0,0,0.05,56.95,0)" xlink:href="#aL"/><use transform="matrix(0.05,0,0,0.05,61.95,0)" xlink:href="#aB"/><use transform="matrix(0.05,0,0,0.05,71.95,0)" xlink:href="#aA"/></g><g id="aj"><use transform="matrix(0.05,0,0,0.05,0,0)" xlink:href="#aF"/><use transform="matrix(0.05,0,0,0.05,14.950000000000001,0)" xlink:href="#aG"/><use transform="matrix(0.05,0,0,0.05,24.950000000000003,0)" xlink:href="#aH"/><use transform="matrix(0.05,0,0,0.05,34.95,0)" xlink:href="#aB"/><use transform="matrix(0.05,0,0,0.05,44.95,0)" xlink:href="#aJ"/></g><g id="ak"><use transform="matrix(0.05,0,0,0.05,0,0)" xlink:href="#bm"/><use transform="matrix(0.05,0,0,0.05,12,0)" xlink:href="#aA"/><use transform="matrix(0.05,0,0,0.05,17.95,0)" xlink:href="#aG"/><use transform="matrix(0.05,0,0,0.05,27.950000000000003,0)" xlink:href="#bd"/><use transform="matrix(0.05,0,0,0.05,36.95,0)" xlink:href="#aO"/><use transform="matrix(0.05,0,0,0.05,40.900000000000006,0)" xlink:href="#aH"/><use transform="matrix(0.05,0,0,0.05,50.900000000000006,0)" xlink:href="#aB"/><use transform="matrix(0.05,0,0,0.05,60.900000000000006,0)" xlink:href="#aA"/></g><g id="al"><use transform="matrix(0.05,0,0,0.05,0,0)" xlink:href="#bj"/><use transform="matrix(0.05,0,0,0.05,12.950000000000001,0)" xlink:href="#aB"/><use transform="matrix(0.05,0,0,0.05,22.950000000000003,0)" xlink:href="#bk"/><use transform="matrix(0.05,0,0,0.05,32.95,0)" xlink:href="#aG"/><use transform="matrix(0.05,0,0,0.05,42.95,0)" xlink:href="#aV"/><use transform="matrix(0.05,0,0,0.05,51.95,0)" xlink:href="#aO"/><use transform="matrix(0.05,0,0,0.05,55.900000000000006,0)" xlink:href="#aL"/><use transform="matrix(0.05,0,0,0.05,60.900000000000006,0)" xlink:href="#aG"/><use transform="matrix(0.05,0,0,0.05,70.9,0)" xlink:href="#aA"/><use transform="matrix(0.05,0,0,0.05,76.85000000000001,0)" xlink:href="#aS"/></g><path d="M145-31C134-9 116 4 85 4 32 4 16-35 15-94c0-59 17-99 70-100 32-1 48 14 60 33 0-11-1-24 2-32h30l-1 268h-32zM93-21c41 0 51-33 51-76s-8-73-50-73c-40 0-46 35-46 75s5 74 45 74" id="bo"/><g id="am"><use transform="matrix(0.05,0,0,0.05,0,0)" xlink:href="#bj"/><use transform="matrix(0.05,0,0,0.05,12.950000000000001,0)" xlink:href="#aB"/><use transform="matrix(0.05,0,0,0.05,22.950000000000003,0)" xlink:href="#bo"/><use transform="matrix(0.05,0,0,0.05,32.95,0)" xlink:href="#aI"/><use transform="matrix(0.05,0,0,0.05,42.95,0)" xlink:href="#aB"/><use transform="matrix(0.05,0,0,0.05,52.95,0)" xlink:href="#aV"/><use transform="matrix(0.05,0,0,0.05,61.95,0)" xlink:href="#aL"/></g><g id="an"><use transform="matrix(0.05,0,0,0.05,0,0)" xlink:href="#aU"/><use transform="matrix(0.05,0,0,0.05,5,0)" xlink:href="#aC"/><use transform="matrix(0.05,0,0,0.05,15,0)" xlink:href="#aL"/><use transform="matrix(0.05,0,0,0.05,20,0)" xlink:href="#aB"/><use transform="matrix(0.05,0,0,0.05,30,0)" xlink:href="#aA"/><use transform="matrix(0.05,0,0,0.05,35.95,0)" xlink:href="#aR"/><use transform="matrix(0.05,0,0,0.05,45.95,0)" xlink:href="#az"/><use transform="matrix(0.05,0,0,0.05,54.95,0)" xlink:href="#aL"/><use transform="matrix(0.05,0,0,0.05,59.95,0)" xlink:href="#aG"/><use transform="matrix(0.05,0,0,0.05,69.95,0)" xlink:href="#aA"/></g><g id="ao"><use transform="matrix(0.05,0,0,0.05,0,0)" xlink:href="#bj"/><use transform="matrix(0.05,0,0,0.05,12.950000000000001,0)" xlink:href="#aG"/><use transform="matrix(0.05,0,0,0.05,22.950000000000003,0)" xlink:href="#aI"/><use transform="matrix(0.05,0,0,0.05,32.95,0)" xlink:href="#aL"/><use transform="matrix(0.05,0,0,0.05,37.95,0)" xlink:href="#aB"/><use transform="matrix(0.05,0,0,0.05,47.95,0)" xlink:href="#aA"/></g><g id="ap"><use transform="matrix(0.05,0,0,0.05,0,0)" xlink:href="#aK"/><use transform="matrix(0.05,0,0,0.05,12.950000000000001,0)" xlink:href="#aG"/><use transform="matrix(0.05,0,0,0.05,22.950000000000003,0)" xlink:href="#aL"/><use transform="matrix(0.05,0,0,0.05,27.950000000000003,0)" xlink:href="#aO"/><use transform="matrix(0.05,0,0,0.05,31.900000000000002,0)" xlink:href="#bb"/><use transform="matrix(0.05,0,0,0.05,36.900000000000006,0)" xlink:href="#aO"/><use transform="matrix(0.05,0,0,0.05,40.85000000000001,0)" xlink:href="#aB"/><use transform="matrix(0.05,0,0,0.05,50.85000000000001,0)" xlink:href="#aV"/></g><g id="aq"><use transform="matrix(0.05,0,0,0.05,0,0)" xlink:href="#bn"/><use transform="matrix(0.05,0,0,0.05,11.65,0)" xlink:href="#aO"/><use transform="matrix(0.05,0,0,0.05,15.600000000000001,0)" xlink:href="#aB"/><use transform="matrix(0.05,0,0,0.05,25.6,0)" xlink:href="#aM"/></g><g id="ar"><use transform="matrix(0.05,0,0,0.05,0,0)" xlink:href="#bm"/><use transform="matrix(0.05,0,0,0.05,12,0)" xlink:href="#aA"/><use transform="matrix(0.05,0,0,0.05,17.95,0)" xlink:href="#aB"/><use transform="matrix(0.05,0,0,0.05,27.950000000000003,0)" xlink:href="#aV"/><use transform="matrix(0.05,0,0,0.05,36.95,0)" xlink:href="#aB"/><use transform="matrix(0.05,0,0,0.05,46.95,0)" xlink:href="#aC"/><use transform="matrix(0.05,0,0,0.05,56.95,0)" xlink:href="#aL"/><use transform="matrix(0.05,0,0,0.05,61.95,0)" xlink:href="#aB"/><use transform="matrix(0.05,0,0,0.05,71.95,0)" xlink:href="#aA"/></g><g id="as"><use transform="matrix(0.05,0,0,0.05,0,0)" xlink:href="#aF"/><use transform="matrix(0.05,0,0,0.05,14.950000000000001,0)" xlink:href="#aG"/><use transform="matrix(0.05,0,0,0.05,24.950000000000003,0)" xlink:href="#aH"/><use transform="matrix(0.05,0,0,0.05,34.95,0)" xlink:href="#aB"/><use transform="matrix(0.05,0,0,0.05,44.95,0)" xlink:href="#aJ"/></g><g id="at"><use transform="matrix(0.05,0,0,0.05,0,0)" xlink:href="#bj"/><use transform="matrix(0.05,0,0,0.05,12.950000000000001,0)" xlink:href="#aB"/><use transform="matrix(0.05,0,0,0.05,22.950000000000003,0)" xlink:href="#bo"/><use transform="matrix(0.05,0,0,0.05,32.95,0)" xlink:href="#aI"/><use transform="matrix(0.05,0,0,0.05,42.95,0)" xlink:href="#aB"/><use transform="matrix(0.05,0,0,0.05,52.95,0)" xlink:href="#aV"/><use transform="matrix(0.05,0,0,0.05,61.95,0)" xlink:href="#aL"/></g><g id="au"><use transform="matrix(0.05,0,0,0.05,0,0)" xlink:href="#aU"/><use transform="matrix(0.05,0,0,0.05,5,0)" xlink:href="#aC"/><use transform="matrix(0.05,0,0,0.05,15,0)" xlink:href="#aL"/><use transform="matrix(0.05,0,0,0.05,20,0)" xlink:href="#aB"/><use transform="matrix(0.05,0,0,0.05,30,0)" xlink:href="#aA"/><use transform="matrix(0.05,0,0,0.05,35.95,0)" xlink:href="#aR"/><use transform="matrix(0.05,0,0,0.05,45.95,0)" xlink:href="#az"/><use transform="matrix(0.05,0,0,0.05,54.95,0)" xlink:href="#aL"/><use transform="matrix(0.05,0,0,0.05,59.95,0)" xlink:href="#aG"/><use transform="matrix(0.05,0,0,0.05,69.95,0)" xlink:href="#aA"/></g><g id="av"><use transform="matrix(0.05,0,0,0.05,0,0)" xlink:href="#bj"/><use transform="matrix(0.05,0,0,0.05,12.950000000000001,0)" xlink:href="#aG"/><use transform="matrix(0.05,0,0,0.05,22.950000000000003,0)" xlink:href="#aI"/><use transform="matrix(0.05,0,0,0.05,32.95,0)" xlink:href="#aL"/><use transform="matrix(0.05,0,0,0.05,37.95,0)" xlink:href="#aB"/><use transform="matrix(0.05,0,0,0.05,47.95,0)" xlink:href="#aA"/></g><g id="aw"><use transform="matrix(0.05,0,0,0.05,0,0)" xlink:href="#aK"/><use transform="matrix(0.05,0,0,0.05,12.950000000000001,0)" xlink:href="#aG"/><use transform="matrix(0.05,0,0,0.05,22.950000000000003,0)" xlink:href="#aL"/><use transform="matrix(0.05,0,0,0.05,27.950000000000003,0)" xlink:href="#aO"/><use transform="matrix(0.05,0,0,0.05,31.900000000000002,0)" xlink:href="#bb"/><use transform="matrix(0.05,0,0,0.05,36.900000000000006,0)" xlink:href="#aO"/><use transform="matrix(0.05,0,0,0.05,40.85000000000001,0)" xlink:href="#aB"/><use transform="matrix(0.05,0,0,0.05,50.85000000000001,0)" xlink:href="#aV"/></g><g id="ax"><use transform="matrix(0.06234567901234567,0,0,0.06234567901234567,0,0)" xlink:href="#aW"/><use transform="matrix(0.06234567901234567,0,0,0.06234567901234567,16.147530864197527,0)" xlink:href="#aR"/><use transform="matrix(0.06234567901234567,0,0,0.06234567901234567,28.61666666666666,0)" xlink:href="#aL"/><use transform="matrix(0.06234567901234567,0,0,0.06234567901234567,34.85123456790123,0)" xlink:href="#aR"/><use transform="matrix(0.06234567901234567,0,0,0.06234567901234567,47.32037037037036,0)" xlink:href="#bh"/><use transform="matrix(0.06234567901234567,0,0,0.06234567901234567,59.789506172839495,0)" xlink:href="#aR"/><use transform="matrix(0.06234567901234567,0,0,0.06234567901234567,72.25864197530862,0)" xlink:href="#aV"/><use transform="matrix(0.06234567901234567,0,0,0.06234567901234567,83.48086419753083,0)" xlink:href="#aB"/></g></defs></g></svg>